<svg width="22" height="22" viewBox="0 0 22 22" fill="none" xmlns="http://www.w3.org/2000/svg">
<path d="M20.1667 7.58075V3.87742C20.1667 2.41992 19.58 1.83325 18.1225 1.83325H14.4192C12.9617 1.83325 12.375 2.41992 12.375 3.87742V7.58075C12.375 9.03825 12.9617 9.62492 14.4192 9.62492H18.1225C19.58 9.62492 20.1667 9.03825 20.1667 7.58075Z" fill="#FF9900" stroke="#FF9900" stroke-width="1.5" stroke-linecap="round" stroke-linejoin="round"/>
<path d="M9.62516 7.80992V3.64825C9.62516 2.35575 9.0385 1.83325 7.581 1.83325H3.87766C2.42016 1.83325 1.8335 2.35575 1.8335 3.64825V7.80075C1.8335 9.10242 2.42016 9.61575 3.87766 9.61575H7.581C9.0385 9.62492 9.62516 9.10242 9.62516 7.80992Z" fill="#FF9900" stroke="#FF9900" stroke-width="1.5" stroke-linecap="round" stroke-linejoin="round"/>
<path d="M9.62516 18.1225V14.4192C9.62516 12.9617 9.0385 12.375 7.581 12.375H3.87766C2.42016 12.375 1.8335 12.9617 1.8335 14.4192V18.1225C1.8335 19.58 2.42016 20.1667 3.87766 20.1667H7.581C9.0385 20.1667 9.62516 19.58 9.62516 18.1225Z" fill="#FF9900" stroke="#FF9900" stroke-width="1.5" stroke-linecap="round" stroke-linejoin="round"/>
<path d="M13.2915 16.0417H18.7915" stroke="#FF9900" stroke-width="1.5" stroke-linecap="round"/>
<path d="M16.0415 18.7917V13.2917" stroke="#FF9900" stroke-width="1.5" stroke-linecap="round"/>
</svg>
