<svg width="20" height="20" viewBox="0 0 20 20" fill="none" xmlns="http://www.w3.org/2000/svg">
<path fill-rule="evenodd" clip-rule="evenodd" d="M5.71957 0.83374H14.2803C17.3979 0.83374 19.1579 2.60199 19.1671 5.71957V14.2812C19.1671 17.3979 17.3979 19.1671 14.2803 19.1671H5.71957C2.60199 19.1671 0.83374 17.3979 0.83374 14.2812V5.71957C0.83374 2.60199 2.60199 0.83374 5.71957 0.83374ZM10.0453 15.3721C10.4404 15.3721 10.7695 15.0787 10.8062 14.6846V5.34374C10.8428 5.05957 10.7062 4.77449 10.4587 4.61957C10.2012 4.46374 9.88949 4.46374 9.64291 4.61957C9.39449 4.77449 9.25791 5.05957 9.28449 5.34374V14.6846C9.33124 15.0787 9.66032 15.3721 10.0453 15.3721ZM14.2629 15.3721C14.6479 15.3721 14.977 15.0787 15.0237 14.6846V11.6779C15.0503 11.3837 14.9137 11.1096 14.6653 10.9537C14.4187 10.7979 14.1071 10.7979 13.8504 10.9537C13.602 11.1096 13.4654 11.3837 13.5021 11.6779V14.6846C13.5387 15.0787 13.8678 15.3721 14.2629 15.3721ZM6.53449 14.6846C6.49782 15.0787 6.16874 15.3721 5.77366 15.3721C5.37949 15.3721 5.04949 15.0787 5.01374 14.6846V8.35041C4.98624 8.06532 5.12282 7.78207 5.37124 7.62624C5.61782 7.47041 5.93041 7.47041 6.17791 7.62624C6.42449 7.78207 6.56291 8.06532 6.53449 8.35041V14.6846Z" fill="#FF9900"/>
</svg>
