<svg width="22" height="22" viewBox="0 0 22 22" fill="none" xmlns="http://www.w3.org/2000/svg">
<path d="M20.1667 13.75C20.1667 17.2975 17.2975 20.1667 13.75 20.1667L14.7125 18.5625" stroke="#FF9900" stroke-width="1.5" stroke-linecap="round" stroke-linejoin="round"/>
<path d="M1.8335 8.24992C1.8335 4.70242 4.70266 1.83325 8.25016 1.83325L7.28766 3.43742" stroke="#FF9900" stroke-width="1.5" stroke-linecap="round" stroke-linejoin="round"/>
<path d="M20.1667 3.84992V3.95075C20.1667 4.20742 19.965 4.40909 19.7083 4.40909H11.4583C11.2017 4.40909 11 4.20742 11 3.95075V3.84992C11 2.23659 11.4033 1.83325 13.035 1.83325H18.1317C19.7633 1.83325 20.1667 2.23659 20.1667 3.84992Z" fill="#FF9900"/>
<path d="M11.4583 5.32593C11.2017 5.32593 11 5.52759 11 5.78426V6.70093V7.60843C11 9.22176 11.4033 9.62509 13.035 9.62509H18.1317C19.7633 9.62509 20.1667 9.22176 20.1667 7.60843V6.70093V5.78426C20.1667 5.52759 19.965 5.32593 19.7083 5.32593H11.4583Z" fill="#FF9900"/>
<path d="M11.0002 14.3917V14.4925C11.0002 14.7492 10.7985 14.9508 10.5418 14.9508H2.29183C2.03516 14.9508 1.8335 14.7492 1.8335 14.4925V14.3917C1.8335 12.7783 2.23683 12.375 3.8685 12.375H8.96516C10.5968 12.375 11.0002 12.7783 11.0002 14.3917Z" fill="#FF9900"/>
<path d="M2.29183 15.8674C2.03516 15.8674 1.8335 16.0691 1.8335 16.3258V17.2424V18.1499C1.8335 19.7633 2.23683 20.1666 3.8685 20.1666H8.96516C10.5968 20.1666 11.0002 19.7633 11.0002 18.1499V17.2424V16.3258C11.0002 16.0691 10.7985 15.8674 10.5418 15.8674H2.29183Z" fill="#FF9900"/>
</svg>
