<svg width="20" height="20" viewBox="0 0 20 20" fill="none" xmlns="http://www.w3.org/2000/svg">
<circle cx="10" cy="10" r="10" fill="#FF9900"/>
<path d="M12.1004 4.91416C11.4266 4.32344 10.5371 4 9.59375 4C8.65039 4 7.76094 4.32568 7.08711 4.91416C6.38633 5.52734 6 6.35166 6 7.23438V7.40508C6 7.50391 6.08086 7.58477 6.17969 7.58477H7.25781C7.35664 7.58477 7.4375 7.50391 7.4375 7.40508V7.23438C7.4375 6.24385 8.40557 5.4375 9.59375 5.4375C10.7819 5.4375 11.75 6.24385 11.75 7.23438C11.75 7.93291 11.2559 8.57305 10.4899 8.86729C10.0138 9.04922 9.60947 9.36816 9.31973 9.78594C9.02549 10.2127 8.87275 10.7248 8.87275 11.2437V11.7266C8.87275 11.8254 8.95361 11.9062 9.05244 11.9062H10.1306C10.2294 11.9062 10.3103 11.8254 10.3103 11.7266V11.2167C10.3114 10.9987 10.3783 10.786 10.5021 10.6065C10.6259 10.427 10.8009 10.289 11.0043 10.2104C12.3295 9.70059 13.1853 8.53262 13.1853 7.23438C13.1875 6.35166 12.8012 5.52734 12.1004 4.91416ZM8.69531 14.2422C8.69531 14.4805 8.78997 14.709 8.95846 14.8775C9.12695 15.046 9.35547 15.1406 9.59375 15.1406C9.83203 15.1406 10.0606 15.046 10.229 14.8775C10.3975 14.709 10.4922 14.4805 10.4922 14.2422C10.4922 14.0039 10.3975 13.7754 10.229 13.6069C10.0606 13.4384 9.83203 13.3438 9.59375 13.3438C9.35547 13.3438 9.12695 13.4384 8.95846 13.6069C8.78997 13.7754 8.69531 14.0039 8.69531 14.2422Z" fill="white"/>
</svg>
