<svg width="22" height="22" viewBox="0 0 22 22" fill="none" xmlns="http://www.w3.org/2000/svg">
<path d="M20.1667 7.58087V3.87754C20.1667 2.42004 19.58 1.83337 18.1225 1.83337H14.4192C12.9617 1.83337 12.375 2.42004 12.375 3.87754V7.58087C12.375 9.03837 12.9617 9.62504 14.4192 9.62504H18.1225C19.58 9.62504 20.1667 9.03837 20.1667 7.58087Z" stroke="#718096" stroke-width="1.5" stroke-linecap="round" stroke-linejoin="round"/>
<path d="M9.62516 7.81004V3.64837C9.62516 2.35587 9.0385 1.83337 7.581 1.83337H3.87766C2.42016 1.83337 1.8335 2.35587 1.8335 3.64837V7.80087C1.8335 9.10254 2.42016 9.61587 3.87766 9.61587H7.581C9.0385 9.62504 9.62516 9.10254 9.62516 7.81004Z" stroke="#718096" stroke-width="1.5" stroke-linecap="round" stroke-linejoin="round"/>
<path d="M9.62516 18.1225V14.4192C9.62516 12.9617 9.0385 12.375 7.581 12.375H3.87766C2.42016 12.375 1.8335 12.9617 1.8335 14.4192V18.1225C1.8335 19.58 2.42016 20.1667 3.87766 20.1667H7.581C9.0385 20.1667 9.62516 19.58 9.62516 18.1225Z" stroke="#718096" stroke-width="1.5" stroke-linecap="round" stroke-linejoin="round"/>
<path d="M13.2915 16.0416H18.7915" stroke="#718096" stroke-width="1.5" stroke-linecap="round"/>
<path d="M16.0415 18.7916V13.2916" stroke="#718096" stroke-width="1.5" stroke-linecap="round"/>
</svg>
