<svg width="22" height="22" viewBox="0 0 22 22" fill="none" xmlns="http://www.w3.org/2000/svg">
<path d="M8.07566 1.83337L4.75732 5.16087" stroke="#718096" stroke-width="1.5" stroke-miterlimit="10" stroke-linecap="round" stroke-linejoin="round"/>
<path d="M13.9243 1.83337L17.2426 5.16087" stroke="#718096" stroke-width="1.5" stroke-miterlimit="10" stroke-linecap="round" stroke-linejoin="round"/>
<path d="M1.8335 7.19588C1.8335 5.50005 2.741 5.36255 3.8685 5.36255H18.1318C19.2593 5.36255 20.1668 5.50005 20.1668 7.19588C20.1668 9.16672 19.2593 9.02922 18.1318 9.02922H3.8685C2.741 9.02922 1.8335 9.16672 1.8335 7.19588Z" stroke="#718096" stroke-width="1.5"/>
<path d="M8.94678 12.8334V16.0875" stroke="#718096" stroke-width="1.5" stroke-linecap="round"/>
<path d="M13.1636 12.8334V16.0875" stroke="#718096" stroke-width="1.5" stroke-linecap="round"/>
<path d="M3.2085 9.16663L4.501 17.0866C4.79433 18.865 5.50016 20.1666 8.12183 20.1666H13.6493C16.5002 20.1666 16.9218 18.92 17.2518 17.1966L18.7918 9.16663" stroke="#718096" stroke-width="1.5" stroke-linecap="round"/>
</svg>
