<svg width="50" height="50" viewBox="0 0 50 50" fill="none" xmlns="http://www.w3.org/2000/svg">
<path d="M0 10C0 4.47715 4.47715 0 10 0H50V40C50 45.5228 45.5228 50 40 50H0V10Z" fill="#FFBB54"/>
<path d="M24.02 32.5H20.5C19.88 32.5 19.33 32.48 18.84 32.41C16.21 32.12 15.5 30.88 15.5 27.5V22.5C15.5 19.12 16.21 17.88 18.84 17.59C19.33 17.52 19.88 17.5 20.5 17.5H23.96" stroke="#141522" stroke-width="1.5" stroke-linecap="round" stroke-linejoin="round"/>
<path d="M28.02 17.5H29.5C30.12 17.5 30.67 17.52 31.16 17.59C33.79 17.88 34.5 19.12 34.5 22.5V27.5C34.5 30.88 33.79 32.12 31.16 32.41C30.67 32.48 30.12 32.5 29.5 32.5H28.02" stroke="#141522" stroke-width="1.5" stroke-linecap="round" stroke-linejoin="round"/>
<path d="M28 15V35" stroke="#141522" stroke-width="1.5" stroke-linecap="round" stroke-linejoin="round"/>
<path d="M24.0946 25H24.1036" stroke="#141522" stroke-width="2" stroke-linecap="round" stroke-linejoin="round"/>
<path d="M20.0946 25H20.1036" stroke="#141522" stroke-width="2" stroke-linecap="round" stroke-linejoin="round"/>
</svg>
