<svg width="200" height="92" viewBox="0 0 200 92" fill="none" xmlns="http://www.w3.org/2000/svg">
<path d="M78.8014 65.5745V46.4098C78.8014 44.412 79.5103 42.7122 80.9281 41.3105C82.3459 39.8927 84.0538 39.1838 86.0516 39.1838V58.3243C86.0516 60.3221 85.3427 62.03 83.9249 63.4477C82.507 64.8656 80.7992 65.5745 78.8014 65.5745ZM82.4265 35.1237C81.1537 35.1237 80.0581 34.6726 79.1397 33.7704C78.2375 32.8681 77.7864 31.7725 77.7864 30.4836C77.7864 29.2108 78.2375 28.1233 79.1397 27.221C80.0581 26.3188 81.1537 25.8677 82.4265 25.8677C83.6993 25.8677 84.7868 26.3188 85.6891 27.221C86.6074 28.1233 87.0666 29.2108 87.0666 30.4836C87.0666 31.7725 86.6074 32.8681 85.6891 33.7704C84.7868 34.6726 83.6993 35.1237 82.4265 35.1237ZM111.5 42.9297C112.531 43.8643 113.506 45.2257 114.424 47.014C115.342 48.8024 115.801 51.1385 115.801 54.0226V65.6228C113.804 65.6228 112.096 64.9139 110.678 63.496C109.276 62.0783 108.575 60.3704 108.575 58.3726V54.0226C108.575 51.4608 107.883 49.5113 106.497 48.174C105.273 47.0623 103.806 46.5064 102.099 46.5064C101.196 46.5064 100.125 46.8046 98.8843 47.4008C97.6599 47.9807 96.9993 49.0763 96.9027 50.6874V65.6228C94.8887 65.6228 93.181 64.93 91.7792 63.5445C90.3936 62.1588 89.6686 60.435 89.6042 58.3726L89.4833 46.3857C89.4833 44.404 90.1842 42.7122 91.5859 41.3105C93.0037 39.8927 94.7116 39.1838 96.7094 39.1838V40.3439C98.3366 39.635 100.133 39.2805 102.099 39.2805C105.675 39.2805 108.809 40.4969 111.5 42.9297ZM140.259 42.9297C141.29 43.8643 142.265 45.2257 143.183 47.014C144.101 48.8024 144.56 51.1385 144.56 54.0226V65.6228C142.563 65.6228 140.855 64.9139 139.437 63.496C138.035 62.0783 137.334 60.3704 137.334 58.3726V54.0226C137.334 51.4608 136.642 49.5113 135.256 48.174C134.032 47.0623 132.565 46.5064 130.858 46.5064C129.955 46.5064 128.884 46.8046 127.643 47.4008C126.419 47.9807 125.758 49.0763 125.662 50.6874V65.6228C123.648 65.6228 121.94 64.93 120.538 63.5445C119.153 62.1588 118.428 60.435 118.363 58.3726L118.242 46.3857C118.242 44.404 118.943 42.7122 120.345 41.3105C121.763 39.8927 123.471 39.1838 125.468 39.1838V40.3439C127.096 39.635 128.892 39.2805 130.858 39.2805C134.434 39.2805 137.568 40.4969 140.259 42.9297ZM169.67 39.1838C171.024 39.1838 172.055 39.7316 172.764 40.8272C173.472 41.9228 173.569 43.115 173.054 44.404L165.223 61.9252C163.886 64.3902 161.985 65.6228 159.52 65.6228C157.055 65.6228 155.154 64.3902 153.816 61.9252L145.986 44.404C145.471 43.115 145.567 41.9228 146.276 40.8272C147.001 39.7316 148.032 39.1838 149.37 39.1838C150.868 39.1838 152.004 39.9411 152.777 41.4556L159.52 57.5026L166.263 41.4556C167.052 39.9411 168.188 39.1838 169.67 39.1838ZM186.756 65.6469C190.398 65.6469 193.515 64.3499 196.109 61.756C198.703 59.1621 200 56.0446 200 52.4033C200 48.7461 198.703 45.6203 196.109 43.0265C193.515 40.4325 190.398 39.1355 186.756 39.1355C183.099 39.1355 179.973 40.4325 177.38 43.0265C174.786 45.6203 173.489 48.7461 173.489 52.4033C173.489 56.0446 174.786 59.1621 177.38 61.756C179.973 64.3499 183.099 65.6469 186.756 65.6469ZM186.756 46.3857C188.4 46.3857 189.81 46.9738 190.986 48.1499C192.162 49.326 192.75 50.7439 192.75 52.4033C192.75 54.0628 192.162 55.4806 190.986 56.6567C189.81 57.8168 188.4 58.3967 186.756 58.3967C185.097 58.3967 183.679 57.8168 182.503 56.6567C181.327 55.4806 180.739 54.0628 180.739 52.4033C180.739 50.7439 181.327 49.326 182.503 48.1499C183.679 46.9738 185.097 46.3857 186.756 46.3857Z" fill="#FF9900"/>
<path d="M69.8861 26.1701C69.8861 25.5507 69.7641 24.9374 69.5271 24.3651C69.29 23.7929 68.9426 23.2729 68.5046 22.835C68.0667 22.397 67.5467 22.0496 66.9745 21.8126C66.4022 21.5755 65.7889 21.4535 65.1695 21.4536C51.9101 21.8717 38.9098 21.872 26.1686 21.4544C25.5493 21.4543 24.9361 21.5763 24.3639 21.8132C23.7918 22.0502 23.2719 22.3975 22.834 22.8355C22.3961 23.2734 22.0487 23.7932 21.8118 24.3654C21.5748 24.9376 21.4528 25.5508 21.4529 26.1701C21.7035 26.1701 21.7076 65.166 21.4529 65.1685C21.453 66.4196 21.95 67.6194 22.8347 68.5041C23.7193 69.3888 24.9192 69.8858 26.1703 69.8859C26.1695 69.674 65.1712 69.674 65.1704 69.8859C66.4215 69.8858 67.6213 69.3888 68.506 68.5041C69.3906 67.6195 69.8876 66.4196 69.8877 65.1685C69.7613 51.7921 69.7608 38.7926 69.8861 26.1701ZM64.0048 59.7967C64.0049 60.3494 63.8961 60.8967 63.6846 61.4074C63.4731 61.9181 63.1631 62.3821 62.7723 62.7729C62.3814 63.1637 61.9174 63.4738 61.4068 63.6852C60.8961 63.8967 60.3488 64.0055 59.796 64.0055L31.543 64.0055C30.9902 64.0055 30.4429 63.8967 29.9322 63.6852C29.4216 63.4737 28.9576 63.1637 28.5667 62.7729C28.1759 62.3821 27.8659 61.918 27.6544 61.4074C27.4429 60.8967 27.3341 60.3494 27.3342 59.7967L27.3342 31.5436C27.3341 30.9909 27.4429 30.4435 27.6544 29.9329C27.8659 29.4222 28.1759 28.9582 28.5667 28.5674C28.9576 28.1765 29.4216 27.8665 29.9322 27.655C30.4429 27.4435 30.9902 27.3347 31.5429 27.3348L59.7927 27.3381C60.3455 27.338 60.8928 27.4468 61.4034 27.6583C61.9141 27.8698 62.3781 28.1798 62.769 28.5707C63.1598 28.9615 63.4698 29.4255 63.6813 29.9362C63.8928 30.4468 64.0016 30.9942 64.0015 31.5469L64.0048 59.7967Z" fill="#FF9900"/>
<path d="M53.598 33.5466L37.7405 33.5465C36.6281 33.547 35.5614 33.9891 34.7748 34.7757C33.9883 35.5623 33.5462 36.6289 33.5457 37.7413L33.5457 53.6005C33.5462 54.7129 33.9883 55.7796 34.7749 56.5661C35.5614 57.3527 36.6281 57.7948 37.7405 57.7953L53.598 57.7953C54.7104 57.7948 55.7771 57.3527 56.5636 56.5661C57.3502 55.7796 57.7923 54.7129 57.7928 53.6005L57.7928 37.7413C57.7923 36.629 57.3502 35.5623 56.5636 34.7757C55.7771 33.9891 54.7104 33.547 53.598 33.5466ZM51.9429 47.9484C51.9429 48.4731 51.8396 48.9926 51.6388 49.4774C51.4381 49.9622 51.1438 50.4026 50.7728 50.7736C50.4018 51.1446 49.9613 51.4389 49.4766 51.6397C48.9918 51.8404 48.4723 51.9437 47.9476 51.9437L43.3909 51.9437C42.8663 51.9438 42.3467 51.8404 41.8619 51.6397C41.3772 51.4389 40.9367 51.1446 40.5657 50.7736C40.1947 50.4026 39.9004 49.9621 39.6997 49.4774C39.4989 48.9926 39.3956 48.4731 39.3956 47.9484L39.3956 43.3918C39.3954 42.867 39.4986 42.3474 39.6993 41.8626C39.9 41.3778 40.1943 40.9372 40.5654 40.5662C40.9364 40.1952 41.3769 39.9009 41.8617 39.7002C42.3466 39.4995 42.8662 39.3963 43.3909 39.3965L47.9476 39.3965C48.4723 39.3963 48.9919 39.4995 49.4767 39.7002C49.9616 39.9009 50.4021 40.1952 50.7731 40.5662C51.1442 40.9373 51.4384 41.3778 51.6391 41.8626C51.8399 42.3474 51.9431 42.8671 51.9429 43.3918L51.9429 47.9484Z" fill="#FF9900"/>
</svg>
