<svg width="142" height="48" viewBox="0 0 142 48" fill="none" xmlns="http://www.w3.org/2000/svg">
<path d="M1.17657 47.3049V24.473C1.17657 22.0929 1.9983 20.0678 3.64177 18.3979C5.28523 16.7088 7.26487 15.8642 9.58066 15.8642V38.6673C9.58066 41.0474 8.75893 43.0821 7.11546 44.7711C5.472 46.4604 3.49236 47.3049 1.17657 47.3049ZM5.37862 11.0272C3.90322 11.0272 2.63328 10.4898 1.56876 9.41489C0.522921 8.34002 0 7.03478 0 5.49923C0 3.98286 0.522921 2.68723 1.56876 1.61234C2.63328 0.537446 3.90322 0 5.37862 0C6.85401 0 8.11462 0.537446 9.16046 1.61234C10.225 2.68723 10.7572 3.98286 10.7572 5.49923C10.7572 7.03478 10.225 8.34002 9.16046 9.41489C8.11462 10.4898 6.85401 11.0272 5.37862 11.0272ZM39.0791 20.3269C40.2742 21.4403 41.4042 23.0622 42.4687 25.1928C43.5332 27.3234 44.0654 30.1065 44.0654 33.5425V47.3624C41.7496 47.3624 39.77 46.5179 38.1266 44.8287C36.5018 43.1396 35.6893 41.105 35.6893 38.7249V33.5425C35.6893 30.4905 34.8863 28.1679 33.2802 26.5748C31.8608 25.2504 30.1614 24.5881 28.1817 24.5881C27.1359 24.5881 25.8939 24.9433 24.4558 25.6535C23.0365 26.3444 22.2708 27.6497 22.1589 29.5691V47.3624C19.8242 47.3624 17.8447 46.5371 16.2199 44.8864C14.6138 43.2356 13.7734 41.1819 13.6987 38.7249L13.5586 24.4442C13.5586 22.0833 14.371 20.0678 15.9958 18.3979C17.6393 16.7088 19.6189 15.8642 21.9347 15.8642V17.2463C23.8209 16.4017 25.9032 15.9794 28.1817 15.9794C32.3277 15.9794 35.9601 17.4286 39.0791 20.3269ZM72.4153 20.3269C73.6104 21.4403 74.7404 23.0622 75.8049 25.1928C76.8694 27.3234 77.4016 30.1065 77.4016 33.5425V47.3624C75.0858 47.3624 73.1061 46.5179 71.4627 44.8287C69.838 43.1396 69.0257 41.105 69.0257 38.7249V33.5425C69.0257 30.4905 68.2225 28.1679 66.6164 26.5748C65.1971 25.2504 63.4976 24.5881 61.5179 24.5881C60.4721 24.5881 59.2301 24.9433 57.7922 25.6535C56.3727 26.3444 55.607 27.6497 55.495 29.5691V47.3624C53.1606 47.3624 51.1809 46.5371 49.556 44.8864C47.9499 43.2356 47.1096 41.1819 47.0349 38.7249L46.8948 24.4442C46.8948 22.0833 47.7072 20.0678 49.3321 18.3979C50.9755 16.7088 52.9551 15.8642 55.2709 15.8642V17.2463C57.1571 16.4017 59.2394 15.9794 61.5179 15.9794C65.6639 15.9794 69.2964 17.4286 72.4153 20.3269ZM106.508 15.8642C108.077 15.8642 109.272 16.5169 110.094 17.8221C110.915 19.1274 111.027 20.5477 110.43 22.0833L101.353 42.9572C99.8033 45.894 97.5995 47.3624 94.7421 47.3624C91.8847 47.3624 89.6809 45.894 88.1308 42.9572L79.0545 22.0833C78.4568 20.5477 78.5689 19.1274 79.3906 17.8221C80.231 16.5169 81.4263 15.8642 82.9764 15.8642C84.7132 15.8642 86.0299 16.7664 86.9262 18.5707L94.7421 37.6884L102.558 18.5707C103.473 16.7664 104.79 15.8642 106.508 15.8642ZM126.313 47.3912C130.534 47.3912 134.148 45.846 137.155 42.7557C140.161 39.6655 141.665 35.9514 141.665 31.6133C141.665 27.2563 140.161 23.5324 137.155 20.4422C134.148 17.3518 130.534 15.8067 126.313 15.8067C122.074 15.8067 118.451 17.3518 115.444 20.4422C112.437 23.5324 110.934 27.2563 110.934 31.6133C110.934 35.9514 112.437 39.6655 115.444 42.7557C118.451 45.846 122.074 47.3912 126.313 47.3912ZM126.313 24.4442C128.218 24.4442 129.852 25.1449 131.216 26.546C132.579 27.9471 133.261 29.6364 133.261 31.6133C133.261 33.5904 132.579 35.2795 131.216 36.6806C129.852 38.0627 128.218 38.7536 126.313 38.7536C124.39 38.7536 122.746 38.0627 121.383 36.6806C120.02 35.2795 119.338 33.5904 119.338 31.6133C119.338 29.6364 120.02 27.9471 121.383 26.546C122.746 25.1449 124.39 24.4442 126.313 24.4442Z" fill="#FF9900"/>
</svg>
